# xmcd
#
# Track frame offsets:
#	150
#	15007
#	29970
#	48492
#	61857
#	78770
#	93652
#	107875
#	121870
#	130637
#	146937
#	158742
#	169152
#	181087
#
# Disc length: 2543 seconds
#
# Revision: 1
# Processed by: cddbd v1.5.2PL0 Copyright (c) Steve Scherf et al.
# Submitted via: audiograbber 1.83.01
#
DISCID=b109ed0e
DTITLE=Iron Horse - Ridin' Out The Storm
DYEAR=2001
DGENRE=Blue Grass
TTITLE0=Fire On The Mountain
TTITLE1=Leaving Me
TTITLE2=Fair Weather Friends
TTITLE3=Lonesome Pine
TTITLE4=Ridin' Out The Storm
TTITLE5=This Old House
TTITLE6=Small Exception Of Me
TTITLE7=Going Home
TTITLE8=Mando Mambo
TTITLE9=In My Father`s House
TTITLE10=Little Girl In Tennessee
TTITLE11=Rain, Rain, Rain
TTITLE12=Come On In
TTITLE13=Iron Horse
EXTD=
EXTT0=
EXTT1=
EXTT2=
EXTT3=
EXTT4=
EXTT5=
EXTT6=
EXTT7=
EXTT8=
EXTT9=
EXTT10=
EXTT11=
EXTT12=
EXTT13=
PLAYORDER=
